<mxfile host="app.diagrams.net" agent="Mozilla/5.0 (Windows NT 10.0; Win64; x64) AppleWebKit/537.36 (KHTML, like Gecko) Chrome/136.0.0.0 Safari/537.36" version="27.0.9">
  <diagram name="第 1 页" id="jOQz_b7_vfbkGV_zgNSB">
    <mxGraphModel dx="1554" dy="815" grid="0" gridSize="10" guides="1" tooltips="1" connect="1" arrows="1" fold="1" page="1" pageScale="1" pageWidth="827" pageHeight="1169" math="0" shadow="0">
      <root>
        <mxCell id="0" />
        <mxCell id="1" parent="0" />
        <mxCell id="gmD8yFYFnmh3HyaKJykw-26" value="" style="rounded=0;whiteSpace=wrap;html=1;" parent="1" vertex="1">
          <mxGeometry x="20" y="70" width="785" height="450" as="geometry" />
        </mxCell>
        <mxCell id="gmD8yFYFnmh3HyaKJykw-1" value="UE鸿蒙化" style="rounded=0;whiteSpace=wrap;html=1;" parent="1" vertex="1">
          <mxGeometry x="366" y="80" width="96" height="50" as="geometry" />
        </mxCell>
        <mxCell id="gmD8yFYFnmh3HyaKJykw-2" value="运行时适配模块" style="rounded=0;whiteSpace=wrap;html=1;" parent="1" vertex="1">
          <mxGeometry x="60" y="200" width="120" height="60" as="geometry" />
        </mxCell>
        <mxCell id="gmD8yFYFnmh3HyaKJykw-3" value="构建系统适配模块" style="rounded=0;whiteSpace=wrap;html=1;" parent="1" vertex="1">
          <mxGeometry x="258" y="200" width="120" height="60" as="geometry" />
        </mxCell>
        <mxCell id="gmD8yFYFnmh3HyaKJykw-4" value="编辑器适配模块" style="rounded=0;whiteSpace=wrap;html=1;" parent="1" vertex="1">
          <mxGeometry x="460" y="200" width="120" height="60" as="geometry" />
        </mxCell>
        <mxCell id="gmD8yFYFnmh3HyaKJykw-5" value="插件与第三方库适配模块" style="rounded=0;whiteSpace=wrap;html=1;" parent="1" vertex="1">
          <mxGeometry x="665" y="200" width="120" height="60" as="geometry" />
        </mxCell>
        <mxCell id="gmD8yFYFnmh3HyaKJykw-6" value="核心系统适配" style="rounded=0;whiteSpace=wrap;html=1;" parent="1" vertex="1">
          <mxGeometry x="30" y="320" width="20" height="190" as="geometry" />
        </mxCell>
        <mxCell id="gmD8yFYFnmh3HyaKJykw-7" value="应用生命周期适配" style="rounded=0;whiteSpace=wrap;html=1;" parent="1" vertex="1">
          <mxGeometry x="65" y="320" width="20" height="190" as="geometry" />
        </mxCell>
        <mxCell id="gmD8yFYFnmh3HyaKJykw-8" value="渲染系统视频" style="rounded=0;whiteSpace=wrap;html=1;" parent="1" vertex="1">
          <mxGeometry x="97" y="320" width="20" height="190" as="geometry" />
        </mxCell>
        <mxCell id="gmD8yFYFnmh3HyaKJykw-9" value="输入系统适配" style="rounded=0;whiteSpace=wrap;html=1;" parent="1" vertex="1">
          <mxGeometry x="130" y="320" width="20" height="190" as="geometry" />
        </mxCell>
        <mxCell id="gmD8yFYFnmh3HyaKJykw-10" value="音频系统适配" style="rounded=0;whiteSpace=wrap;html=1;" parent="1" vertex="1">
          <mxGeometry x="160" y="320" width="20" height="190" as="geometry" />
        </mxCell>
        <mxCell id="gmD8yFYFnmh3HyaKJykw-11" value="网络系统适配" style="rounded=0;whiteSpace=wrap;html=1;" parent="1" vertex="1">
          <mxGeometry x="193" y="320" width="20" height="190" as="geometry" />
        </mxCell>
        <mxCell id="gmD8yFYFnmh3HyaKJykw-13" value="编译环境与工具链适配" style="rounded=0;whiteSpace=wrap;html=1;" parent="1" vertex="1">
          <mxGeometry x="236" y="320" width="20" height="190" as="geometry" />
        </mxCell>
        <mxCell id="gmD8yFYFnmh3HyaKJykw-14" value="应用程序打包适配" style="rounded=0;whiteSpace=wrap;html=1;" parent="1" vertex="1">
          <mxGeometry x="380" y="320" width="20" height="190" as="geometry" />
        </mxCell>
        <mxCell id="gmD8yFYFnmh3HyaKJykw-15" value="U&lt;div&gt;P&lt;/div&gt;&lt;div&gt;L&lt;div&gt;适配&lt;/div&gt;&lt;/div&gt;" style="rounded=0;whiteSpace=wrap;html=1;" parent="1" vertex="1">
          <mxGeometry x="332" y="320" width="20" height="190" as="geometry" />
        </mxCell>
        <mxCell id="gmD8yFYFnmh3HyaKJykw-17" value="新增鸿蒙打包选项" style="rounded=0;whiteSpace=wrap;html=1;" parent="1" vertex="1">
          <mxGeometry x="570" y="320" width="20" height="190" as="geometry" />
        </mxCell>
        <mxCell id="gmD8yFYFnmh3HyaKJykw-18" value="预览&lt;div&gt;功能支持&lt;/div&gt;" style="rounded=0;whiteSpace=wrap;html=1;" parent="1" vertex="1">
          <mxGeometry x="450" y="320" width="20" height="190" as="geometry" />
        </mxCell>
        <mxCell id="gmD8yFYFnmh3HyaKJykw-19" value="增加鸿蒙平台特定配置" style="rounded=0;whiteSpace=wrap;html=1;" parent="1" vertex="1">
          <mxGeometry x="510" y="320" width="20" height="190" as="geometry" />
        </mxCell>
        <mxCell id="gmD8yFYFnmh3HyaKJykw-20" value="视频插件适配" style="rounded=0;whiteSpace=wrap;html=1;" parent="1" vertex="1">
          <mxGeometry x="650" y="320" width="20" height="190" as="geometry" />
        </mxCell>
        <mxCell id="gmD8yFYFnmh3HyaKJykw-21" value="第三方库适配" style="rounded=0;whiteSpace=wrap;html=1;" parent="1" vertex="1">
          <mxGeometry x="715" y="320" width="20" height="190" as="geometry" />
        </mxCell>
        <mxCell id="gmD8yFYFnmh3HyaKJykw-22" value="平台特定功能插件&lt;div&gt;适配&lt;/div&gt;" style="rounded=0;whiteSpace=wrap;html=1;" parent="1" vertex="1">
          <mxGeometry x="776" y="320" width="20" height="190" as="geometry" />
        </mxCell>
        <mxCell id="gmD8yFYFnmh3HyaKJykw-29" value="" style="edgeStyle=elbowEdgeStyle;elbow=horizontal;endArrow=classic;html=1;curved=0;rounded=0;endSize=8;startSize=8;exitX=0.5;exitY=1;exitDx=0;exitDy=0;" parent="1" edge="1">
          <mxGeometry width="50" height="50" relative="1" as="geometry">
            <mxPoint x="452" y="150" as="sourcePoint" />
            <mxPoint x="318" y="200" as="targetPoint" />
            <Array as="points">
              <mxPoint x="318" y="200" />
            </Array>
          </mxGeometry>
        </mxCell>
        <mxCell id="gmD8yFYFnmh3HyaKJykw-30" value="" style="edgeStyle=elbowEdgeStyle;elbow=horizontal;endArrow=classic;html=1;curved=0;rounded=0;endSize=8;startSize=8;" parent="1" edge="1">
          <mxGeometry width="50" height="50" relative="1" as="geometry">
            <mxPoint x="330" y="150" as="sourcePoint" />
            <mxPoint x="123" y="200" as="targetPoint" />
            <Array as="points">
              <mxPoint x="123" y="200" />
            </Array>
          </mxGeometry>
        </mxCell>
        <mxCell id="gmD8yFYFnmh3HyaKJykw-31" value="" style="edgeStyle=elbowEdgeStyle;elbow=horizontal;endArrow=classic;html=1;curved=0;rounded=0;endSize=8;startSize=8;" parent="1" edge="1">
          <mxGeometry width="50" height="50" relative="1" as="geometry">
            <mxPoint x="438" y="150" as="sourcePoint" />
            <mxPoint x="518" y="200" as="targetPoint" />
            <Array as="points">
              <mxPoint x="518" y="180" />
            </Array>
          </mxGeometry>
        </mxCell>
        <mxCell id="gmD8yFYFnmh3HyaKJykw-32" value="" style="edgeStyle=elbowEdgeStyle;elbow=horizontal;endArrow=classic;html=1;curved=0;rounded=0;endSize=8;startSize=8;" parent="1" edge="1">
          <mxGeometry width="50" height="50" relative="1" as="geometry">
            <mxPoint x="501" y="150" as="sourcePoint" />
            <mxPoint x="723" y="200" as="targetPoint" />
            <Array as="points">
              <mxPoint x="723" y="180" />
            </Array>
          </mxGeometry>
        </mxCell>
        <mxCell id="gmD8yFYFnmh3HyaKJykw-40" value="" style="line;strokeWidth=1;direction=south;html=1;" parent="1" vertex="1">
          <mxGeometry x="409" y="130" width="10" height="20" as="geometry" />
        </mxCell>
        <mxCell id="gmD8yFYFnmh3HyaKJykw-43" value="" style="edgeStyle=elbowEdgeStyle;elbow=horizontal;endArrow=classic;html=1;curved=0;rounded=0;endSize=8;startSize=8;exitX=1;exitY=0.5;exitDx=0;exitDy=0;exitPerimeter=0;" parent="1" edge="1">
          <mxGeometry width="50" height="50" relative="1" as="geometry">
            <mxPoint x="322" y="280" as="sourcePoint" />
            <mxPoint x="247" y="320" as="targetPoint" />
            <Array as="points">
              <mxPoint x="247" y="330" />
            </Array>
          </mxGeometry>
        </mxCell>
        <mxCell id="gmD8yFYFnmh3HyaKJykw-44" value="" style="edgeStyle=elbowEdgeStyle;elbow=horizontal;endArrow=classic;html=1;curved=0;rounded=0;endSize=8;startSize=8;" parent="1" edge="1">
          <mxGeometry width="50" height="50" relative="1" as="geometry">
            <mxPoint x="332" y="280" as="sourcePoint" />
            <mxPoint x="342" y="320" as="targetPoint" />
            <Array as="points">
              <mxPoint x="342" y="310" />
            </Array>
          </mxGeometry>
        </mxCell>
        <mxCell id="gmD8yFYFnmh3HyaKJykw-45" value="" style="edgeStyle=elbowEdgeStyle;elbow=horizontal;endArrow=classic;html=1;curved=0;rounded=0;endSize=8;startSize=8;exitX=1;exitY=0.5;exitDx=0;exitDy=0;exitPerimeter=0;" parent="1" edge="1">
          <mxGeometry width="50" height="50" relative="1" as="geometry">
            <mxPoint x="325" y="280" as="sourcePoint" />
            <mxPoint x="390" y="320" as="targetPoint" />
            <Array as="points">
              <mxPoint x="390" y="300" />
            </Array>
          </mxGeometry>
        </mxCell>
        <mxCell id="gmD8yFYFnmh3HyaKJykw-46" value="" style="line;strokeWidth=1;direction=south;html=1;" parent="1" vertex="1">
          <mxGeometry x="313" y="260" width="10" height="20" as="geometry" />
        </mxCell>
        <mxCell id="gmD8yFYFnmh3HyaKJykw-48" value="" style="edgeStyle=elbowEdgeStyle;elbow=horizontal;endArrow=classic;html=1;curved=0;rounded=0;endSize=8;startSize=8;exitX=1;exitY=0.5;exitDx=0;exitDy=0;exitPerimeter=0;" parent="1" edge="1">
          <mxGeometry width="50" height="50" relative="1" as="geometry">
            <mxPoint x="535" y="280" as="sourcePoint" />
            <mxPoint x="460" y="320" as="targetPoint" />
            <Array as="points">
              <mxPoint x="460" y="330" />
            </Array>
          </mxGeometry>
        </mxCell>
        <mxCell id="gmD8yFYFnmh3HyaKJykw-49" value="" style="edgeStyle=elbowEdgeStyle;elbow=horizontal;endArrow=classic;html=1;curved=0;rounded=0;endSize=8;startSize=8;" parent="1" edge="1">
          <mxGeometry width="50" height="50" relative="1" as="geometry">
            <mxPoint x="510" y="280" as="sourcePoint" />
            <mxPoint x="520" y="320" as="targetPoint" />
            <Array as="points">
              <mxPoint x="520" y="310" />
            </Array>
          </mxGeometry>
        </mxCell>
        <mxCell id="gmD8yFYFnmh3HyaKJykw-50" value="" style="edgeStyle=elbowEdgeStyle;elbow=horizontal;endArrow=classic;html=1;curved=0;rounded=0;endSize=8;startSize=8;exitX=1;exitY=0.5;exitDx=0;exitDy=0;exitPerimeter=0;" parent="1" edge="1">
          <mxGeometry width="50" height="50" relative="1" as="geometry">
            <mxPoint x="515" y="280" as="sourcePoint" />
            <mxPoint x="580" y="320" as="targetPoint" />
            <Array as="points">
              <mxPoint x="580" y="300" />
            </Array>
          </mxGeometry>
        </mxCell>
        <mxCell id="gmD8yFYFnmh3HyaKJykw-51" value="" style="line;strokeWidth=1;direction=south;html=1;" parent="1" vertex="1">
          <mxGeometry x="515" y="260" width="10" height="20" as="geometry" />
        </mxCell>
        <mxCell id="gmD8yFYFnmh3HyaKJykw-56" value="" style="edgeStyle=elbowEdgeStyle;elbow=horizontal;endArrow=classic;html=1;curved=0;rounded=0;endSize=8;startSize=8;exitX=1;exitY=0.5;exitDx=0;exitDy=0;exitPerimeter=0;" parent="1" edge="1">
          <mxGeometry width="50" height="50" relative="1" as="geometry">
            <mxPoint x="735" y="280" as="sourcePoint" />
            <mxPoint x="660" y="320" as="targetPoint" />
            <Array as="points">
              <mxPoint x="660" y="330" />
            </Array>
          </mxGeometry>
        </mxCell>
        <mxCell id="gmD8yFYFnmh3HyaKJykw-57" value="" style="edgeStyle=elbowEdgeStyle;elbow=horizontal;endArrow=classic;html=1;curved=0;rounded=0;endSize=8;startSize=8;" parent="1" edge="1">
          <mxGeometry width="50" height="50" relative="1" as="geometry">
            <mxPoint x="715" y="280" as="sourcePoint" />
            <mxPoint x="725" y="320" as="targetPoint" />
            <Array as="points">
              <mxPoint x="725" y="310" />
            </Array>
          </mxGeometry>
        </mxCell>
        <mxCell id="gmD8yFYFnmh3HyaKJykw-58" value="" style="edgeStyle=elbowEdgeStyle;elbow=horizontal;endArrow=classic;html=1;curved=0;rounded=0;endSize=8;startSize=8;exitX=1;exitY=0.5;exitDx=0;exitDy=0;exitPerimeter=0;" parent="1" edge="1">
          <mxGeometry width="50" height="50" relative="1" as="geometry">
            <mxPoint x="720" y="280" as="sourcePoint" />
            <mxPoint x="785" y="320" as="targetPoint" />
            <Array as="points">
              <mxPoint x="785" y="300" />
            </Array>
          </mxGeometry>
        </mxCell>
        <mxCell id="gmD8yFYFnmh3HyaKJykw-59" value="" style="line;strokeWidth=1;direction=south;html=1;" parent="1" vertex="1">
          <mxGeometry x="720" y="260" width="10" height="20" as="geometry" />
        </mxCell>
        <mxCell id="gmD8yFYFnmh3HyaKJykw-60" value="" style="edgeStyle=elbowEdgeStyle;elbow=horizontal;endArrow=classic;html=1;curved=0;rounded=0;endSize=8;startSize=8;exitX=1;exitY=0.5;exitDx=0;exitDy=0;exitPerimeter=0;" parent="1" edge="1">
          <mxGeometry width="50" height="50" relative="1" as="geometry">
            <mxPoint x="117.5" y="280" as="sourcePoint" />
            <mxPoint x="42.5" y="320" as="targetPoint" />
            <Array as="points">
              <mxPoint x="42.5" y="330" />
            </Array>
          </mxGeometry>
        </mxCell>
        <mxCell id="gmD8yFYFnmh3HyaKJykw-61" value="" style="edgeStyle=elbowEdgeStyle;elbow=horizontal;endArrow=classic;html=1;curved=0;rounded=0;endSize=8;startSize=8;" parent="1" edge="1">
          <mxGeometry width="50" height="50" relative="1" as="geometry">
            <mxPoint x="130" y="280" as="sourcePoint" />
            <mxPoint x="140" y="320" as="targetPoint" />
            <Array as="points">
              <mxPoint x="140" y="310" />
            </Array>
          </mxGeometry>
        </mxCell>
        <mxCell id="gmD8yFYFnmh3HyaKJykw-62" value="" style="edgeStyle=elbowEdgeStyle;elbow=horizontal;endArrow=classic;html=1;curved=0;rounded=0;endSize=8;startSize=8;exitX=1;exitY=0.5;exitDx=0;exitDy=0;exitPerimeter=0;" parent="1" edge="1">
          <mxGeometry width="50" height="50" relative="1" as="geometry">
            <mxPoint x="137.5" y="280" as="sourcePoint" />
            <mxPoint x="202.5" y="320" as="targetPoint" />
            <Array as="points">
              <mxPoint x="202.5" y="300" />
            </Array>
          </mxGeometry>
        </mxCell>
        <mxCell id="gmD8yFYFnmh3HyaKJykw-63" value="" style="line;strokeWidth=1;direction=south;html=1;" parent="1" vertex="1">
          <mxGeometry x="120" y="260" width="10" height="20" as="geometry" />
        </mxCell>
        <mxCell id="gmD8yFYFnmh3HyaKJykw-64" value="" style="edgeStyle=elbowEdgeStyle;elbow=horizontal;endArrow=classic;html=1;curved=0;rounded=0;endSize=8;startSize=8;exitX=1;exitY=0.5;exitDx=0;exitDy=0;exitPerimeter=0;" parent="1" edge="1">
          <mxGeometry width="50" height="50" relative="1" as="geometry">
            <mxPoint x="150" y="280" as="sourcePoint" />
            <mxPoint x="75" y="320" as="targetPoint" />
            <Array as="points">
              <mxPoint x="75" y="330" />
            </Array>
          </mxGeometry>
        </mxCell>
        <mxCell id="gmD8yFYFnmh3HyaKJykw-65" value="" style="edgeStyle=elbowEdgeStyle;elbow=horizontal;endArrow=classic;html=1;curved=0;rounded=0;endSize=8;startSize=8;exitX=1;exitY=0.5;exitDx=0;exitDy=0;exitPerimeter=0;" parent="1" edge="1">
          <mxGeometry width="50" height="50" relative="1" as="geometry">
            <mxPoint x="182" y="280" as="sourcePoint" />
            <mxPoint x="107" y="320" as="targetPoint" />
            <Array as="points">
              <mxPoint x="107" y="330" />
            </Array>
          </mxGeometry>
        </mxCell>
        <mxCell id="gmD8yFYFnmh3HyaKJykw-66" value="" style="edgeStyle=elbowEdgeStyle;elbow=horizontal;endArrow=classic;html=1;curved=0;rounded=0;endSize=8;startSize=8;exitX=1;exitY=0.5;exitDx=0;exitDy=0;exitPerimeter=0;" parent="1" edge="1">
          <mxGeometry width="50" height="50" relative="1" as="geometry">
            <mxPoint x="105" y="280" as="sourcePoint" />
            <mxPoint x="170" y="320" as="targetPoint" />
            <Array as="points">
              <mxPoint x="170" y="300" />
            </Array>
          </mxGeometry>
        </mxCell>
        <mxCell id="cK6l_rPGmRLCW95OG5WC-1" value="" style="edgeStyle=elbowEdgeStyle;elbow=horizontal;endArrow=classic;html=1;curved=0;rounded=0;endSize=8;startSize=8;exitX=1;exitY=0.5;exitDx=0;exitDy=0;exitPerimeter=0;" edge="1" parent="1">
          <mxGeometry width="50" height="50" relative="1" as="geometry">
            <mxPoint x="368" y="280" as="sourcePoint" />
            <mxPoint x="293" y="320" as="targetPoint" />
            <Array as="points">
              <mxPoint x="293" y="330" />
            </Array>
          </mxGeometry>
        </mxCell>
        <mxCell id="cK6l_rPGmRLCW95OG5WC-2" value="平台定义适配" style="rounded=0;whiteSpace=wrap;html=1;" vertex="1" parent="1">
          <mxGeometry x="283" y="320" width="20" height="190" as="geometry" />
        </mxCell>
      </root>
    </mxGraphModel>
  </diagram>
</mxfile>
